<?xml version="1.0" encoding="UTF-8"?>
<svg id="Layer_4" data-name="Layer 4" xmlns="http://www.w3.org/2000/svg" viewBox="0 0 425 383">
  <defs>
    <style>
      .cls-1 {
        fill: #825b7e;
      }

      .cls-2 {
        fill: #5c6a00;
      }

      .cls-3 {
        fill: #fc584f;
      }

      .cls-4 {
        fill: #ff9b69;
        stroke: #ffb996;
      }

      .cls-4, .cls-5, .cls-6, .cls-7, .cls-8, .cls-9, .cls-10, .cls-11, .cls-12, .cls-13, .cls-14 {
        stroke-miterlimit: 10;
      }

      .cls-15 {
        fill: #8c7967;
      }

      .cls-16 {
        fill: #ea897c;
      }

      .cls-17 {
        font-family: GillSansMT-Condensed, 'Gill Sans MT Condensed';
        font-size: 120.44px;
      }

      .cls-18 {
        fill: #135c57;
      }

      .cls-19 {
        fill: #f63534;
      }

      .cls-20 {
        fill: #be1f1a;
      }

      .cls-21 {
        fill: #f84e26;
      }

      .cls-5 {
        stroke: #483c29;
      }

      .cls-5, .cls-6, .cls-8, .cls-10, .cls-11, .cls-12, .cls-13, .cls-14 {
        fill: none;
      }

      .cls-5, .cls-7, .cls-14 {
        stroke-width: .5px;
      }

      .cls-22 {
        fill: #fde5cf;
      }

      .cls-6 {
        stroke: #cc412f;
      }

      .cls-7 {
        fill: #d8c1d6;
        stroke: #ab6fa8;
      }

      .cls-23 {
        fill: #bf2424;
      }

      .cls-24 {
        fill: #a74868;
      }

      .cls-25 {
        font-family: ComicSansMS, 'Comic Sans MS';
        font-size: 109px;
      }

      .cls-8 {
        stroke-width: .75px;
      }

      .cls-8, .cls-11 {
        stroke: #e4448e;
      }

      .cls-9 {
        fill: #ffb674;
        stroke: #ed944c;
      }

      .cls-26 {
        font-family: Candara, Candara;
        font-size: 96px;
      }

      .cls-10 {
        stroke: #f49569;
        stroke-width: 2px;
      }

      .cls-27 {
        fill: #e5bfd2;
      }

      .cls-28, .cls-29 {
        fill: #205445;
      }

      .cls-30 {
        fill: #ffb996;
      }

      .cls-31 {
        fill: #d32122;
      }

      .cls-32 {
        fill: #ab6fa8;
      }

      .cls-33 {
        fill: #b1290b;
      }

      .cls-34 {
        fill: #f88169;
      }

      .cls-35 {
        fill: #ad3936;
      }

      .cls-36 {
        fill: #bf946a;
      }

      .cls-12, .cls-14 {
        stroke: #a14564;
      }

      .cls-37 {
        fill: #0b7c31;
      }

      .cls-13 {
        stroke: #a31500;
      }

      .cls-38 {
        fill: #fb8f4b;
      }

      .cls-39 {
        fill: #7a413b;
      }

      .cls-40 {
        fill: #fefefe;
      }

      .cls-41 {
        fill: #a14564;
      }

      .cls-42 {
        fill: #a8615a;
      }

      .cls-29 {
        opacity: .09;
      }
    </style>
  </defs>
  <text class="cls-26" transform="translate(148.27 124.23)"><tspan x="0" y="0">Let</tspan></text>
  <text class="cls-25" transform="translate(141.32 218.5)"><tspan x="0" y="0">Me</tspan></text>
  <text class="cls-17" transform="translate(131.37 313.51)"><tspan x="0" y="0">Cook</tspan></text>
  <g>
    <g>
      <g>
        <g>
          <path class="cls-37" d="M294.6,132.52s-2.87,2.18,1.09,1.43c0,0,5.73-4.35,10.03-7.62,4.3-3.26,16.85-10.54,15.76-25.07-1.09-14.53-15.48-12.65-18.74-3.85,0,0-3.41,8.01-.98,16.56,2.43,8.55-2.22,14.34-2.22,14.34l-4.94,4.2Z"/>
          <path class="cls-28" d="M294.63,132.56c-.78.61-1.71,1.66.09,1.45.25,0,.8-.14.92-.12,0,0,10.26-7.95,10.26-7.95,6.8-4.83,13.68-11.22,14.65-19.91.42-3.94.19-8.56-2.35-11.75-2.47-3.28-7.23-3.61-10.6-1.5-3.72,2.12-5.06,6.43-5.8,10.44-.9,4.25-.3,8.51.67,12.7.63,4.34-.26,8.94-2.85,12.49l-4.98,4.16h0ZM294.57,132.48l4.94-4.21c2.47-3.48,3.38-8.09,2.62-12.31-1.08-4.19-1.77-8.54-.97-12.85.66-4.21,2.03-8.84,5.97-11.1,3.68-2.37,9.12-2.02,11.84,1.64,2.71,3.51,2.92,8.26,2.43,12.49-1.18,8.92-8.28,15.24-15.33,20.02,0,0-10.34,7.83-10.34,7.83-.32.06-.66.12-.99.14-1.87.17-1.16-.91-.16-1.66h0Z"/>
        </g>
        <g>
          <path class="cls-37" d="M306.09,121.77s6.72-7.81,6.37-18.39"/>
          <path class="cls-28" d="M306.09,121.77c3.5-5.57,5.82-11.81,6.37-18.39.89,6.63-1.72,13.65-6.37,18.39h0Z"/>
        </g>
        <g>
          <path class="cls-37" d="M313.96,109.23s-.98-5.22,1.13-9.22"/>
          <path class="cls-28" d="M313.96,109.23c-.81-3.03-.62-6.55,1.13-9.22-1.1,2.96-1.24,6.08-1.13,9.22h0Z"/>
        </g>
        <g>
          <path class="cls-37" d="M310.17,114.87s3.66.23,5.47-3.23"/>
          <path class="cls-28" d="M310.17,114.87c2.25-.52,3.94-1.5,5.47-3.23-.52,2.32-3.21,3.86-5.47,3.23h0Z"/>
        </g>
        <g>
          <path class="cls-37" d="M307.21,106s-.22,3.18,1.71,9.09"/>
          <path class="cls-28" d="M307.21,106c.49,3.03,1.29,6.04,1.71,9.09-1.42-2.76-2.25-5.99-1.71-9.09h0Z"/>
        </g>
        <g>
          <path class="cls-37" d="M309.77,104.29s-.58,1.94,1,5.3"/>
          <path class="cls-28" d="M309.77,104.29c-.17,1.83.42,3.58,1,5.3-.89-1.56-1.52-3.51-1-5.3h0Z"/>
        </g>
      </g>
      <g>
        <path class="cls-29" d="M321.06,101.93c-.93-4.92-.39-2.91-1.44-6.36-.15-.5-.54-2.06-.93-2.79-.67-1.23-2.04-1.78-3.37-1.99-2.72-.43-5.76-.38-8.09,1.2-3.98,2.71-4.81,7.49-5.15,11.96,0,.05.36,0,.37-.11.2-2.44.42-4.93,1.47-7.19.84-1.81,2.58-4.13,4.54-4.88,1.73-.67,3.68-.81,5.51-.58,5.62.7,5.1,3.08,6.58,11.36-.02-.09.56-.41.52-.62Z"/>
        <path class="cls-29" d="M321.15,102.18c-.57-2.91-.85-7.05-2.71-9.54-.37-.5-.78-.79-1.35-1.08-1.55-.78-3.76-.8-5.43-.71-2.17.12-3.87.71-5.54,2.09-3.3,2.72-3.9,7.52-4.19,11.45,0,.1.16.06.17,0-.54-7.53,3.29-12.01,11.49-13.43,1.93-.3,3.39.2,4.39,1.5,2.23,2.4,2.43,6.76,3.02,9.79.02.09.16-.01.14-.07Z"/>
        <path class="cls-29" d="M320.81,102c-.53-2.84-.99-5.76-2.06-8.47-.18-.46-.39-.97-.73-1.34-1.21-1.34-3.6-1.41-5.22-1.43-2.83-.03-5.21.64-7.11,2.84-2.49,2.88-3.03,6.48-3.33,10.16,0-.04,1.59-.05,1.61-.25.23-2.8.67-5.74,2.37-8.09s4.4-3.11,7.24-2.92c1.24.08,3.11.24,3.79,1.43.19.33.25.69.33,1.05.09.81.3,1.59.62,2.35.66,2.05,1.09,4.14,1.31,6.29-.07-.39,1.26-1.12,1.16-1.62Z"/>
        <path class="cls-29" d="M320.76,102.17c-.53-2.85-1.01-5.73-2.05-8.45-.17-.45-.37-.93-.69-1.3-1.2-1.39-3.59-1.51-5.25-1.53-2.84-.04-5.25.64-7.17,2.82-2.54,2.88-3.11,6.52-3.43,10.23,0-.08,1.17-.16,1.19-.4.43-4.72,1.89-10.52,7.34-11.49,1.53-.27,3.48-.21,4.99.25,1.36.21,2.15,1.06,2.37,2.54.94,2.72,1.58,5.5,1.92,8.35-.04-.21.84-.68.78-1.01Z"/>
        <path class="cls-29" d="M321.07,101.81c-.54-2.93-.9-6.55-2.36-9.22-.69-1.26-2.06-1.79-3.43-2-3.21-.5-6.47-.23-9.06,1.87-3.32,2.68-3.94,7.53-4.23,11.42,0,.08.25.1.26.02.04-1.7.26-3.37.67-5.02l2-4.38c1.43-2.15,3.59-3.28,6.09-3.5,1.71-.15,3.41-.09,5.05.43,3.94,1.24,4.1,8.42,4.54,10.93.01.06.5-.4.47-.54Z"/>
        <path class="cls-29" d="M320.81,101.85c-.53-2.85-.99-5.76-2.06-8.48-.18-.46-.39-.97-.73-1.35-1.22-1.36-3.64-1.42-5.27-1.44-2.85-.03-5.23.66-7.13,2.87-2.49,2.9-3.03,6.52-3.33,10.22,0,0,1.37.03,1.38-.13.24-2.88.69-5.89,2.45-8.3s4.46-3.19,7.37-3.02c1.27.07,3.26.2,3.99,1.42.21.35.28.7.38,1.08.11.81.32,1.6.63,2.36.66,2.05,1.11,4.15,1.33,6.31-.06-.37,1.09-1.06,1-1.54Z"/>
        <path class="cls-29" d="M320.8,102.34c-.53-2.85-1.01-5.72-2.05-8.45-.17-.45-.36-.91-.67-1.28-1.2-1.41-3.57-1.53-5.23-1.57-2.84-.05-5.27.61-7.2,2.79-2.55,2.88-3.12,6.53-3.44,10.25,0-.11,1.07-.25,1.09-.51.39-4.4,1.56-9.95,6.49-11.33,1.7-.48,3.49-.51,5.22-.13,4.31.95,4.44,7.74,5.02,11.04-.02-.14.81-.55.76-.82Z"/>
        <path class="cls-29" d="M320.9,101.58c-.55-2.93-.93-6.44-2.36-9.13-.56-1.05-1.5-1.5-2.63-1.8-2.84-.76-6.36-.65-8.82,1.03-3.95,2.7-4.79,7.5-5.16,11.94,0,.07.44.08.45-.01.59-5.45,2.39-11.89,8.85-12.43,1.77-.15,3.99-.19,5.62.69,2.8,1.52,3.5,10.37,3.53,10.56,0-.01.57-.6.53-.84Z"/>
        <path class="cls-29" d="M320.79,102.22c-.53-2.84-.99-5.75-2.05-8.46-.18-.45-.38-.95-.71-1.32-1.19-1.33-3.56-1.42-5.16-1.44-2.82-.04-5.2.61-7.11,2.78-2.5,2.86-3.06,6.45-3.38,10.12,0-.11,1.55-.18,1.57-.44.24-2.79.71-5.72,2.41-8.06s4.4-3.08,7.23-2.89c1.23.08,3.1.26,3.77,1.45.19.33.23.67.32,1.03.76,2.91,1.41,5.63,1.93,8.62-.05-.31,1.24-.96,1.16-1.4Z"/>
        <path class="cls-29" d="M320.8,101.86c-.53-2.85-1.01-5.74-2.06-8.46-.18-.46-.38-.95-.71-1.33-1.24-1.41-3.65-1.49-5.34-1.51-2.86-.04-5.29.65-7.21,2.86-2.54,2.91-3.11,6.59-3.42,10.32,0,0,.88-.02.9-.18.47-4.84,1.96-10.83,7.56-11.85,1.55-.28,3.54-.22,5.07.19,1.42.19,2.29,1.05,2.61,2.58.95,2.72,1.6,5.52,1.95,8.38-.04-.21.7-.67.64-1Z"/>
        <path class="cls-29" d="M320.97,101.54c-.91-4.94-.38-2.92-1.42-6.38-.22-.75-.49-1.98-.93-2.79-.67-1.26-2.04-1.79-3.4-2-2.73-.42-5.75-.36-8.08,1.23-4.01,2.73-4.86,7.53-5.23,12.03,0,.09.29.15.29.08.51-5.09,2.12-11.58,8.07-12.63,1.57-.28,3.58-.2,5.14.18.76.12,1.44.41,2.05.87,2.01,3,3,6.4,2.98,10.21,0,0,.57-.57.53-.8Z"/>
        <path class="cls-29" d="M320.71,102.31c-.53-2.85-1-5.73-2.04-8.46-.17-.45-.37-.94-.69-1.31-1.18-1.36-3.56-1.46-5.17-1.49-2.82-.05-5.23.61-7.14,2.78-2.53,2.86-3.1,6.49-3.42,10.17.01-.12,1.39-.22,1.41-.49.26-2.9.7-5.84,2.48-8.27,1.59-2.16,3.84-3.03,6.46-3.05,1.6,0,4.2.1,5.02,1.78.17.34.26.71.28,1.09.93,2.72,1.57,5.5,1.91,8.35-.04-.23.97-.75.91-1.1Z"/>
      </g>
    </g>
    <g>
      <path class="cls-29" d="M301.98,126.63c-2.15,2.7-4.6,5.09-7.36,7.16-.03.02.46.05.56-.04,2.76-2.07,5.23-4.45,7.39-7.15.04-.04-.5-.07-.59.03Z"/>
      <path class="cls-29" d="M301.77,127.04c-2.14,2.7-4.59,5.09-7.35,7.16-.1.09.18.06.23.01,2.75-2.07,5.2-4.46,7.35-7.16.09-.1-.18-.06-.22,0Z"/>
      <path class="cls-29" d="M302.2,126.5c-2.15,2.71-4.61,5.1-7.38,7.17.32-.27,1.43.23,1.83-.11,2.75-2.08,5.21-4.47,7.37-7.16-.24.27-1.5-.26-1.82.09Z"/>
      <path class="cls-29" d="M302.02,126.69c-2.46,2.39-4.92,4.78-7.38,7.17.28-.24,1.13.05,1.47-.24,5.17-4.42,2.78-2.1,7.38-7.15-.21.23-1.19-.09-1.47.23Z"/>
      <path class="cls-29" d="M301.92,126.49c-2.15,2.7-4.62,5.08-7.39,7.15-.05.04.35.07.43,0,2.76-2.06,5.22-4.44,7.38-7.13.06-.06-.36-.09-.42-.02Z"/>
      <path class="cls-29" d="M302.13,126.4c-2.15,2.71-4.62,5.1-7.39,7.17.26-.22,1.27.29,1.61,0,2.75-2.08,5.21-4.46,7.36-7.15-.19.2-1.32-.31-1.59-.01Z"/>
      <path class="cls-29" d="M302.08,126.86l-7.35,7.14c.1-.08,1.05-.07,1.32-.3,5.21-4.46,2.8-2.12,7.41-7.2-.22.25-1.1.04-1.38.36Z"/>
      <path class="cls-29" d="M301.82,126.3c-2.14,2.7-4.58,5.07-7.34,7.14-.04.03.56.16.67.06,2.77-2.07,5.23-4.46,7.4-7.16-.05.05-.6-.19-.74-.04Z"/>
      <path class="cls-29" d="M302.22,126.66c-2.15,2.71-4.61,5.1-7.38,7.17.35-.3,1.39.08,1.81-.28,2.76-2.08,5.22-4.48,7.38-7.17-.27.3-1.46-.1-1.8.28Z"/>
      <path class="cls-29" d="M301.94,126.47l-7.38,7.16c.18-.15.91.16,1.17-.06,5.17-4.42,2.77-2.09,7.36-7.14-.13.14-.94-.2-1.15.03Z"/>
      <path class="cls-29" d="M301.88,126.24c-2.15,2.7-4.62,5.08-7.39,7.15-.05.04.42.13.51.06,2.76-2.06,5.22-4.43,7.38-7.12.06-.07-.43-.16-.5-.09Z"/>
      <path class="cls-29" d="M302.08,126.76c-2.15,2.71-4.61,5.1-7.38,7.17.34-.29,1.29,0,1.68-.34,2.76-2.09,5.22-4.48,7.38-7.18-.27.29-1.35-.03-1.69.34Z"/>
    </g>
    <g>
      <path class="cls-29" d="M305.43,102.8l.4,2.82s.29-.44.28-.6l-.31-2.76s-.39.39-.37.53Z"/>
      <path class="cls-29" d="M305.32,103.32l.43,2.9c0,.06.26-.28.24-.38l-.42-2.91c0-.06-.27.29-.25.39Z"/>
      <path class="cls-29" d="M305.55,102.42l.39,2.85c-.06-.4.87-1.03.83-1.53l-.23-2.71c.03.36-1.06.93-.99,1.4Z"/>
      <path class="cls-29" d="M305.39,102.73l.4,2.85c-.05-.36.72-.95.68-1.41l-.23-2.71c.03.33-.91.84-.85,1.27Z"/>
      <path class="cls-29" d="M305.38,102.74l.42,2.89c.01.08.24-.21.23-.3l-.41-2.89c-.01-.08-.26.2-.25.29Z"/>
      <path class="cls-29" d="M305.51,102.34l.39,2.84c-.04-.29.75-.82.71-1.21l-.24-2.7c.02.26-.9.71-.85,1.07Z"/>
      <path class="cls-29" d="M305.43,102.94l.4,2.86c-.06-.41.7-1.05.66-1.52l-.24-2.79c.03.39-.89.97-.82,1.45Z"/>
      <path class="cls-29" d="M305.27,102.48l.38,2.86c0,.07.27-.26.26-.36l-.31-2.8c-.01-.09-.33.2-.32.29Z"/>
      <path class="cls-29" d="M305.53,102.63l.4,2.86c-.07-.47.88-1.18.83-1.74l-.24-2.74c.04.44-1.08,1.08-1,1.62Z"/>
      <path class="cls-29" d="M305.35,102.54l.38,2.79s.51-.6.49-.83l-.27-2.72c.02.15-.63.49-.6.76Z"/>
      <path class="cls-29" d="M305.28,102.53l.44,2.89c.01.1.23-.12.22-.19l-.45-2.89c-.02-.1-.23.12-.22.19Z"/>
      <path class="cls-29" d="M305.41,102.79l.41,2.87c-.06-.45.87-1.15.82-1.69l-.24-2.74c.04.42-1.06,1.05-.99,1.57Z"/>
    </g>
  </g>
  <path class="cls-18" d="M138.31,195.01c-26.33,2.56-55.12,4.69-81.49,6.44-3.88.3-7.75.48-11.64.29,0,0,7.66-6.59,7.66-6.59-.38,2.47-.71,5.13-.83,7.67-2.65,49.49,13.83,102.13,59.43,127.21,38.68,21.2,85.12,20.72,127.82,14.83,52.43-5.46,105.4-33.55,127.77-83,3.11-6.97,6.16-14.96,8-22.36,1.57-5.1,1.92-10.43,3.56-15.54,0,0,1.69-7.87,1.69-7.87,1.13-4.66,1.84-11.3,2.6-16.03,0,0,5.44,5.56,5.44,5.56-8.38-.51-21.11-1.54-29.66-2.18-9.89-.75-19.78-1.59-29.66-2.5,14.31-1.71,30-3.23,44.4-4.68,6.64-.7,13.5-1.24,20.16-1.89.02,3.43.18,11.16.21,14.66.19,4.87-.37,12.39-.61,17.34-.57,5.81-2.03,11.46-3.64,17.06-2.05,8.16-5.4,17.01-8.86,24.74-24.83,54.48-81.75,85.4-139.55,91.59-50.5,7.04-107.15,6.17-150.03-25.05-43.27-31.23-57.98-88.32-53.61-139.32.08-2.25.76-6.66.94-8.84,0,0,6.94-.11,6.94-.11,6.56-.2,16.57,1.02,23.25,1.54,7.75.67,15.5,1.41,23.24,2.14,13.64,1.35,33.11,3.3,46.48,4.91h0Z"/>
  <g>
    <path class="cls-21" d="M105.44,61.54s-3.86-6.66-9.73-6.8c0,0-5.76-.52-7.5,7.34,0,0-2.09,6.93,10.28,9.97,0,0-9.23,6.24-2.24,13.22,7,6.98,17.8,3.14,18.24-1.3.45-4.44.22-6.7-2.11-10.52,0,0,10.29,4.34,11.62-5.91,1.33-10.26-7.01-12.89-7.01-12.89,0,0-8.07-.81-11.56,6.9Z"/>
    <path class="cls-10" d="M105.55,66.64s.29-9.81-9.98-7.97c-.13.02-.27.05-.4.08,0,0-10.6,8.66,6.66,12.56,0,0-7.43,5.74-4.18,9.31s8.24,7.68,14.45-.35c0,0,2.39-2.28-3.38-9.35,0,0,6.24,2.43,7.78,1.5,1.53-.93,5.6-1.96,3.47-9.38s-12.38-5.93-14.42,3.59Z"/>
    <path class="cls-6" d="M105.44,61.54s-3.86-6.66-9.73-6.8c0,0-5.76-.52-7.5,7.34,0,0-2.09,6.93,10.28,9.97,0,0-9.23,6.24-2.24,13.22s17.8,3.14,18.24-1.3c.45-4.44.22-6.7-2.11-10.52,0,0,10.29,4.34,11.62-5.91,1.33-10.26-7.01-12.89-7.01-12.89,0,0-8.07-.81-11.56,6.9Z"/>
    <path class="cls-4" d="M105.27,66.53s.29-9.81-9.98-7.97c-.13.02-.27.05-.4.08,0,0-10.6,8.66,6.66,12.56,0,0-7.43,5.74-4.18,9.31s8.24,7.68,14.45-.35c0,0,2.39-2.28-3.38-9.35,0,0,6.24,2.43,7.78,1.5,1.53-.93,5.6-1.96,3.47-9.38-2.14-7.42-12.38-5.93-14.42,3.59Z"/>
  </g>
  <g>
    <path class="cls-7" d="M331.17,142.41l.63,3.33c.38,2-5.04,9.92-12.21,8.51-7.17-1.41-13.26-4.41-15.84-10.83,0,0-3.42-3.5,6.42-2.59,9.84.91,10.09,2.25,21.01,1.57Z"/>
    <path class="cls-2" d="M326.34,146.08c-.4-.13-.77-.3-1.14-.48h.19c-.77.47-3.13,1.33-3.29-.1.13.3.39.39.65.4.89-.04,1.74-.41,2.6-.68.35.27.69.54,1,.86h0Z"/>
    <path class="cls-2" d="M322.67,148.62c-.58.38-1.37.54-2.04.64,0,0-2.09.39-2.09.39l-.29-.29c0,.1.02.04-.07.02-.43-.1-.95.06-1.39.13-.38.09-.79,0-1.18-.03.46-.25.94-.48,1.46-.53.4-.07.83-.16,1.26-.04.14.05.43.17.41.55l-.29-.29,2.09-.39c.66-.15,1.46-.29,2.13-.15h0Z"/>
  </g>
  <g>
    <g>
      <path class="cls-32" d="M58.51,138.49s-7.07,9.21-6.64,18.79,13.84,15.7,13.84,15.7c0,0,4.16.42,3.25-4.44-.91-4.86-5.99-10.14-6.11-22.88,0,0,.55-8.66-4.35-7.18Z"/>
      <path class="cls-1" d="M58.51,138.49c-3.75,5.74-6.87,12.58-6.29,19.55.39,3.46,2.53,6.47,5.01,8.83,2.51,2.41,5.48,4.35,8.59,5.89.77.04,2.46-.39,2.79-1.56.93-3.71-1.88-7.16-3.04-10.58-1.98-4.71-2.93-9.84-2.96-14.94.18-2.75-.08-8.17-4.11-7.18h0ZM58.51,138.49c4.07-1.21,4.65,4.42,4.59,7.18.06,2.53.26,5.05.75,7.52.48,2.48,1.21,4.9,2.19,7.23,1.19,3.5,4.09,7.04,3.04,10.96-.52,1.35-2.1,2.01-3.46,1.83-3.18-1.57-6.16-3.53-8.72-5.98-9.25-7.97-4.66-20.43,1.62-28.74h0Z"/>
    </g>
    <path class="cls-2" d="M60.3,157.15c1.02,1.72,1.34,3.9.81,5.84-.17-1.98-.44-3.87-.81-5.84h0Z"/>
    <path class="cls-2" d="M60.72,166.91c0,.64-.45.17-.59-.12-.94-1.28-1.02-5.18-3.31-4.24,1.14-1.14,2.48.44,2.78,1.55.3.88.45,1.74.75,2.59.07.26.26.69.37.22h0Z"/>
  </g>
  <g>
    <g>
      <path class="cls-16" d="M299.56,64.32s-3.96-9.19,2.34-9.73c6.31-.54,9.86,3.92,9.1,13.51s-8.51,11.84-13.38,10.67-.68-7.88.77-9.59,1.58-.14,1.17-4.86Z"/>
      <path class="cls-42" d="M299.56,64.32c-1.21-2.91-2.88-8.08.96-9.68,5.7-1.56,10.01,2.15,10.6,7.79.38,2.81.32,5.73-.35,8.49-.66,2.78-2.41,5.35-4.9,6.83-2.82,1.84-11.06,3.06-10.77-2.1.4-2.85,1.91-5.53,4.07-7.39.65-.33.48-1.16.5-1.83l-.11-2.11h0ZM299.56,64.32l.23,2.1c.02.54.16,1.11-.08,1.62-2.06,2.01-3.69,4.79-4.11,7.65-.32,4.57,7.61,3.26,10.01,1.63,2.36-1.41,4.04-3.84,4.67-6.53.65-2.68.71-5.56.34-8.29-.56-5.34-4.53-8.84-9.93-7.4-3.47,1.55-2.09,6.37-1.14,9.21h0Z"/>
    </g>
    <ellipse class="cls-39" cx="300.31" cy="72.98" rx=".79" ry="1.58" transform="translate(-5.13 25.9) rotate(-4.9)"/>
    <ellipse class="cls-39" cx="302.33" cy="68.84" rx="1.58" ry=".79" transform="translate(-4.77 26.06) rotate(-4.9)"/>
    <circle class="cls-39" cx="302.85" cy="65.62" r=".79"/>
  </g>
  <g>
    <g>
      <path class="cls-3" d="M116.03,115.18s-2.69,9.98-7.68,6.84c-4.98-3.13-4.88-8.9,1.55-16.53,6.43-7.63,13.53-5.12,16.4-1.37,2.87,3.75-4.32,7.01-6.43,7.63s-1.25-.78-3.84,3.42Z"/>
      <path class="cls-35" d="M116.03,115.18c-.94,2.91-2.53,7.91-6.35,7.54-2.08-.56-3.79-2.26-4.62-4.24-2.21-5.77,4.84-15.07,9.99-17.32,3.94-1.86,9.08-.55,11.54,3.07.96,1.24.51,3.01-.52,4.04-1.99,1.97-4.68,3.42-7.47,3.76-.72.05-1.04.86-1.43,1.37,0,0-1.14,1.77-1.14,1.77h0ZM116.03,115.18l1.09-1.81c.4-.55.7-1.38,1.47-1.46,2.7-.41,5.35-1.92,7.24-3.85.92-.98,1.33-2.48.44-3.62-2.4-3.39-7.28-4.66-11.03-2.85-4.95,2.23-11.83,11.12-9.82,16.74.72,1.85,2.38,3.55,4.31,4.09,3.6.4,5.33-4.5,6.3-7.26h0Z"/>
    </g>
    <path class="cls-39" d="M120.77,107.08l-.97.48c.04-.26.12-.54.24-.81.37-.83,1-1.36,1.4-1.18s.43,1,.06,1.83c-.26.59-.67,1.05-1.04,1.18l.31-1.51Z"/>
    <ellipse class="cls-39" cx="115.84" cy="110.3" rx="1.62" ry=".81" transform="translate(-33.37 52.67) rotate(-22.48)"/>
    <ellipse class="cls-39" cx="109.95" cy="119.18" rx="1.16" ry="1.42" transform="translate(-29.78 36.9) rotate(-16.82)"/>
  </g>
  <g>
    <path class="cls-34" d="M50.37,89.26l34.59,13.66s-5.74,23.84-24.74,16.84c-19-7.01-17.05-20.92-9.85-30.5Z"/>
    <path class="cls-31" d="M56.87,94.8s3.46.62.86,2.26-3.7,11.16,5.75,11.57,11.9-5.04,11.9-5.04c0,0-2.25-1.85-2.47-2.42s-.15-1.16,2.67.38c2.83,1.53,6.43,3.52,6.56,4.89s1.3,8.04-15.64,10.92c-16.95,2.88-19.57-11.49-19.57-11.49,0,0,.68-12.14,9.93-11.07Z"/>
    <path class="cls-23" d="M87.16,103.83s-6,20.07-23.96,18.54c0,0,27.52,3.85,23.96-18.54Z"/>
    <path class="cls-33" d="M86.9,103.82c1.93,6.26.02,13.9-5.94,17.33-5.75,3.45-12.74,3.47-19.14,2.77-8.2-.89-16.46-5.62-19.77-13.44-2.19-4.66-1.1-10.48,1.96-14.41.01-.02,3.26-3.05,3.27-3.07,1.04-1.04,2.23-2.02,2.67-3.47-.08.75-.42,1.46-.81,2.11-1.14,1.74-3.06,3.98-4.13,5.21-1.99,3.44-2.78,7.87-1.19,11.58,4.37,10.5,17.04,13.67,27.46,12.95,10.49-.43,16.69-6.89,15.61-17.57h0Z"/>
    <path class="cls-19" d="M83.38,102.22l-1.24,4.22s.13,1.41-.22,2.17-5.91,10.24-19.58,8.59c0,0-14.04-3.31-14.6-11.24-.56-7.92,6-11.06,8.71-11.06l-6.91-4.05s-17.69,15.58,2.64,28.39c0,0,25.35,14.13,35.09-15.27l-3.89-1.75Z"/>
    <path class="cls-20" d="M51.8,97.95s-1.65,1.46.22,2.46c0,0,2.32-.31,2.77-.94s-2.99-1.52-2.99-1.52Z"/>
    <path class="cls-38" d="M54.01,102.14s-5.68-.84-3.9,2.29c0,0,1.52,2.03,3.97-.95,0,0,1.51-1.45-.07-1.35Z"/>
    <path class="cls-13" d="M54.08,102.25s-5.88-.86-4.03,2.31c0,0,1.58,2.05,4.11-.95,0,0,1.56-1.47-.08-1.36Z"/>
    <path class="cls-9" d="M53.4,102.61s-3.85-.54-2.62,1.3c0,0,1.05,1.2,2.68-.51,0,0,1.01-.84-.06-.79Z"/>
    <path class="cls-38" d="M57.24,108.36s-4.36,3.09-1.2,4c0,0,2.3.35,2.09-3.16,0,0,.11-1.92-.89-.84Z"/>
    <path class="cls-13" d="M57.36,108.39s-4.52,3.2-1.28,4.09c0,0,2.36.33,2.18-3.25,0,0,.13-1.96-.91-.84Z"/>
    <path class="cls-9" d="M57.15,109.23s-2.32,1.93-.55,2.25c0,0,1.27.06,1.07-1.84,0,0,0-1.05-.51-.4Z"/>
    <path class="cls-38" d="M60.88,110.04s-3.04,4.3.08,4.17c0,0,2.18-.39.97-3.66,0,0-.46-1.86-1.05-.51Z"/>
    <path class="cls-13" d="M61,110.04s-3.15,4.46.04,4.28c0,0,2.22-.43,1.03-3.77,0,0-.45-1.9-1.06-.51Z"/>
    <path class="cls-9" d="M61.05,110.9s-1.53,2.57.15,2.3c0,0,1.17-.35.43-2.09,0,0-.3-1-.58-.22Z"/>
    <path class="cls-38" d="M67.64,110.43s-.39,4.95,1.63,3.82c0,0,1.29-1.06-.74-3.69,0,0-1.01-1.56-.89-.13Z"/>
    <path class="cls-13" d="M67.71,110.39s-.4,5.13,1.64,3.94c0,0,1.31-1.11-.75-3.81,0,0-1.02-1.61-.9-.13Z"/>
    <path class="cls-9" d="M68.07,111.17s-.04,2.86.97,2.08c0,0,.64-.7-.51-2.06,0,0-.58-.83-.47-.02Z"/>
    <path class="cls-38" d="M73.38,107.79s.82,5.09,2.71,3.5c0,0,1.13-1.36-1.72-3.56,0,0-1.48-1.36-.99.06Z"/>
    <path class="cls-13" d="M73.45,107.73s.86,5.27,2.76,3.62c0,0,1.13-1.41-1.76-3.69,0,0-1.5-1.4-1,.07Z"/>
    <path class="cls-9" d="M74.03,108.43s.67,2.9,1.57,1.88c0,0,.52-.84-1.06-1.97,0,0-.83-.71-.51.09Z"/>
    <path class="cls-38" d="M76.15,105.82s2.57,3.98,3.85,1.96c0,0,.62-1.55-2.91-2.37,0,0-1.9-.61-.94.41Z"/>
    <path class="cls-13" d="M76.18,105.75s2.61,4.14,3.71,2.15c0,0,.5-1.55-2.85-2.52,0,0-1.82-.69-.86.38Z"/>
    <path class="cls-9" d="M76.96,106.18s1.78,2.4,2.32,1.12c0,0,.21-.97-1.83-1.4,0,0-1.11-.33-.49.28Z"/>
    <path class="cls-20" d="M55.65,106.88s-2.08,3.64-3.64,2.1,1.5-2.31,1.5-2.31l1.96-.73s1.48-1.09.19.95Z"/>
    <path class="cls-20" d="M65.06,110.58s2.16,3.49.11,4.08-1.3-2.36-1.3-2.36l.28-2s-.25-1.77.9.29Z"/>
    <path class="cls-20" d="M71.39,109.6s2.7,3.09.77,4.01-1.66-2.12-1.66-2.12l-.05-2.02s-.53-1.71.94.14Z"/>
  </g>
  <g>
    <g>
      <g>
        <g>
          <path class="cls-36" d="M356.22,141.87s1.45-3.97,1.68-8.63c0,0,1.96-1.29,3.52,1.19,1.57,2.48,5.7,4.01,8.61-3.93,0,0,1.17-11.31-13.31-12.28,0,0-13.98,1.71-11.97,12.41,0,0,2.05,3.75,6.79.33,0,0,3.11-.34.43,2.93s-3.58,4.37-3.41,5.26,7.21,3.26,7.66,2.72Z"/>
          <path class="cls-15" d="M356.2,141.85c.88-2.81,1.41-5.76,1.55-8.7,1.33-.93,3.09-.15,3.81,1.16.71,1.11,1.95,1.97,3.25,1.87,2.81-.35,4.05-3.45,5.05-5.75.23-3.1-1.15-6.78-3.73-8.9-2.59-2.16-6.13-2.92-9.42-3.18-1.45.23-3.18.69-4.63,1.29-4.62,1.67-8.27,5.8-7.07,10.94,1.6,2.27,4.23,1.78,6.45.13,5.52.12-3.09,6.26-2.76,8.39.64.8,2.01,1.18,2.97,1.61,1.43.46,3.01,1.29,4.52,1.15h0ZM356.25,141.88c-.19.15-.41.09-.6.09-1.39-.16-2.72-.6-4.04-1.05-.93-.35-1.89-.7-2.74-1.24-.16-.13-.37-.22-.45-.53-.54-2.14,7.2-7.84,3.28-7.99-2.25,1.72-5.54,2.35-7.19-.49-1.63-7.56,5.74-11.79,12.23-12.6,3.35.29,6.87,1.17,9.53,3.32,2.67,2.2,4.15,5.69,3.96,9.15-.96,2.46-2.35,5.77-5.37,6.06-1.51.07-2.84-.91-3.58-2.11-.64-1.16-2.07-1.88-3.28-1.14,0,0,.07-.12.07-.12-.17,2.95-.8,5.86-1.81,8.63h0Z"/>
        </g>
        <path class="cls-5" d="M359.08,130.71s4.4-1.75,5.47-1.03c0,0,1.51-3.67-3.13-1.57,0,0-2.51,1.71-2.34,2.6Z"/>
        <path class="cls-5" d="M354.49,129.72s-2.63-2.28-3.69-2.08-3.47-.9-.48-2.53c2.99-1.64,4.17,4.61,4.17,4.61Z"/>
      </g>
      <path class="cls-15" d="M350.99,125.99c-.34.11-.62.07-.96.01-.24-.04-.53-.03-.68.2-.17.27,0,.59.24.75.27.18.6.24.91.25s.65-.03.97-.04c.14,0,.29,0,.43.03.16.05.23.16.35.28.22.22.52.26.77.43.23.17.33.47.42.73.11.3.58.18.48-.13-.17-.55-.71-.78-1.19-1-.31-.14-.62-.28-.93-.42-.26-.12-.54-.23-.76-.4-.09-.07-.21-.17-.25-.28-.06-.14.06-.26.16-.37.23-.25.46-.12.67.09.48.48.85,1.08,1.22,1.64.1.15.34.18.43,0,.4-.76-.3-1.45-.83-1.92-.61-.53-1.36-.66-2.13-.47-.31.07-.76.18-.92.48-.08.15-.06.34.06.46s.29.14.46.14c.19,0,.39.01.57.08.16.06.3.16.44.27.25.19.5.39.82.44.17.03.38.02.52-.1.15-.14.15-.35.06-.51-.19-.37-.71-.57-1.1-.65-.31-.07-.45.42-.13.48.16.03.32.08.47.16.08.04.17.09.24.15.03.02.06.05.07.08l.04-.1s-.17-.02-.19-.03c-.05-.02-.09-.04-.13-.06-.11-.06-.22-.15-.32-.22-.22-.17-.45-.33-.72-.41-.16-.04-.33-.06-.49-.07-.03,0-.23-.03-.25,0,0,.12.04.15.1.09.03-.01.06-.03.09-.04.58-.24,1.29-.34,1.85,0,.28.17.51.42.73.66.2.22.44.54.28.85h.43c-.35-.52-.7-1.05-1.11-1.53-.34-.4-.87-.82-1.4-.46-.19.13-.39.36-.48.58-.12.28.04.56.22.77.36.42.94.6,1.43.82.31.14.63.27.94.42.23.11.49.26.57.52l.48-.13c-.18-.52-.4-.94-.93-1.16-.11-.05-.24-.09-.33-.17-.11-.09-.19-.22-.31-.3-.21-.16-.48-.2-.74-.2-.54,0-1.21.2-1.71-.1-.04-.02-.11-.11-.14-.07.01-.02.1,0,.1,0,.11,0,.22.04.33.06.31.05.63.02.93-.07s.18-.58-.13-.48h0Z"/>
    </g>
    <path class="cls-15" d="M363.77,128.73c.04.11.08.22.1.33.04.24.44.24.48,0,.05-.28.01-.52-.1-.78-.08-.19-.19-.47-.38-.59-.25-.15-.5.06-.72.17-.24.12-.49.21-.74.29-.48.13-1.06.09-1.48.37-.19.13-.33.31-.47.5-.14.2-.29.41-.55.46s-.22.41,0,.48c.3.09.57-.07.85-.18.31-.12.62-.23.94-.32.64-.19,1.29-.31,1.95-.38.16-.02.29-.15.24-.32-.07-.24-.19-.44-.35-.62-.18-.2-.46.02-.42.24.02.09.01.18-.03.27-.06.14-.02.33.15.37.35.07.67,0,.94-.24.25-.21-.11-.56-.35-.35-.13.11-.29.15-.45.11l.15.37c.1-.22.12-.42.08-.65l-.42.24c.11.12.18.25.22.4l.24-.32c-.63.06-1.25.17-1.86.34-.29.08-.58.17-.87.27-.14.05-.29.11-.43.16-.13.05-.3.16-.44.12v.48c.4-.08.64-.41.86-.72.12-.17.25-.31.45-.38s.43-.08.65-.12c.44-.07.86-.2,1.26-.39.1-.05.19-.09.29-.15.09-.05.1-.03.04-.09.03.03.05.09.07.12.12.21.24.44.2.69h.48c-.02-.12-.05-.22-.1-.33-.12-.29-.6-.17-.48.13h0Z"/>
  </g>
  <g>
    <g>
      <g>
        <path class="cls-36" d="M110.39,165.38s-7.11,7.88-8.21,5.93-.68-3.47-2.88-7.37c-2.2-3.89-5.74-1.41-5.79.95,0,0-6.81,7.42-11.39,1.04-4.58-6.38-2.05-15.53,2.69-20.78s18.63-7.97,25.4-2.81c0,0,8.73,4.06-.33,13.04,0,0-6.1-1.69-4.74,5.25,0,0,4.57,1.27,5.25,4.74Z"/>
        <path class="cls-15" d="M110.41,165.38c-1.51,1.69-3.05,3.3-4.77,4.75-.92.68-1.77,1.54-2.99,1.62-.33,0-.61-.32-.72-.59-.4-.75-.62-1.59-.84-2.4-.28-1.08-.65-2.12-1.13-3.13-.71-1.41-1.43-3.14-3.1-3.48-1.56-.27-3.08,1.23-3.15,2.74,0,0,0,.09,0,.09l-.05.05c-1.89,1.85-4.23,3.56-6.97,3.64-5.69-.23-7.58-7.94-6.94-12.6.68-5.16,3.25-10.52,7.79-13.31,4.58-2.72,10.06-3.79,15.34-3.3,2.64.28,5.3,1.05,7.49,2.67,2.21,1.05,4.35,3.86,3.78,6.63-.41,2.69-2.33,4.86-4.14,6.75,0,0-.07.08-.07.08l-.11-.03c-3.88-.91-5.29,1.5-4.57,5.05,1.79.32,4.79,2.36,5.16,4.77h0ZM110.37,165.37c-.57-2.46-3-3.91-5.26-4.62-.09-.03-.08,0-.09-.09-.49-2.28-.23-5.2,2.59-5.57.78-.11,1.55-.07,2.32.11l-.18.05c3.94-3.86,6.32-9.42.33-12.69-6.49-4.36-15.77-3.1-22.35.51-2.3,1.26-3.98,3.37-5.3,5.63-1.91,3.4-3.04,7.41-2.49,11.32.51,3.55,2.62,8.31,6.75,8.33,2.5.08,5.28-2.29,6.61-3.46.07-1.81,1.81-3.47,3.65-3.14,1.83.36,2.64,2.27,3.35,3.74.75,1.52,1.06,3.2,1.58,4.79.2.4.32,1.14.81,1.2,1.04-.05,1.99-.92,2.81-1.52,1.73-1.39,3.35-2.98,4.87-4.58h0Z"/>
      </g>
      <path class="cls-5" d="M96.54,159.07s-3.16.44-4.26,1.29-3.83,1.84-.92-1.19c2.9-3.03,5.18-.1,5.18-.1Z"/>
      <path class="cls-5" d="M102.45,155.17s1.14-4.6,2.97-4.5c0,0-4.32-2.07-2.97,4.5Z"/>
    </g>
    <path class="cls-15" d="M103.96,150.7c-.5.04-.81.53-1.02.94-.12.22-.19.45-.23.7-.05.23-.07.47-.17.69-.06.12-.04.27.09.34.11.06.29.03.34-.09.09-.21.15-.42.19-.64s.07-.43.16-.63.2-.37.32-.53c.08-.11.2-.27.33-.28s.25-.11.25-.25c0-.13-.11-.26-.25-.25h0Z"/>
    <path class="cls-15" d="M95.44,158.59l-1-.09.18.43s.14-.03.2-.03c.24,0,.34-.35.13-.47-.39-.21-.81-.22-1.25-.16-.45.06-.87.14-1.28.37-.18.1-.37.21-.53.35-.17.15-.29.35-.43.52-.28.36-.67.62-.95.98-.16.2.04.56.3.39s.52-.24.79-.35.53-.27.79-.44c.28-.18.56-.34.85-.5.27-.15.54-.34.86-.35s.32-.5,0-.5-.6.13-.88.29c-.31.17-.62.35-.93.53s-.57.38-.89.51c-.29.11-.58.21-.84.37l.3.39c.24-.31.55-.54.82-.83s.43-.61.77-.82.67-.34,1.07-.41.8-.12,1.16.07l.13-.47c-.21,0-.39.03-.55.18-.17.16-.03.41.18.43l1,.09c.32.03.32-.47,0-.5h0Z"/>
  </g>
  <g>
    <path class="cls-24" d="M358,104.29l1.1,1.46s-1.11-3.82,1.69-5.91c0,0,10.81-1.87,11.02-17.61,0,0-3.49-14.28-15.13-15.7,0,0-7.7-1.02-15.87.68,0,0-3.33-2-3.65-2.9l-1.13-.79-1.06-3.36s-.58.18-.44,1.29l-2.35-3.25s-.82-.66.42,2.57l.82,1.59-2.43-1.37,1.99,2.75s2.09,3.5,1.93,5.41-3.81,3.74-5.1,4.87-3.54,4.27-3.2,6.88,3.49,11.13,5.68,13.06,4.47,5.43,8.36,6.2c0,0,4.67,1.99,10.35,1.59,0,0,2.33.62,2.93,2.06,0,0,1.62,1.48,1.32,2.28l.84-1.44,1.22.98.68-1.34Z"/>
    <path class="cls-40" d="M352.3,101.17s4.4,3.4,4.82.32c0,0,1.65-2.88,3.16-2.33s7.08-3.11,5.91-8.6c-1.17-5.49-2.81-11.4-8.94-14.67,0,0-12.37-6.49-15.17-6.33-2.8.15-3.84-1.8-3.84-1.8l-2.99-3.42s-1.42-.56-.85.72,1.2,4.25,1.2,4.25c0,0,.71.88-4.41,4.11-5.13,3.23-4.98,7.37-3.56,11.24,1.41,3.87,2.17,6.54,5.15,9.76,2.97,3.22,6.46,5.61,9.25,6.25s6.32.81,7.28.44,2.99.07,2.99.07Z"/>
    <path class="cls-12" d="M335.05,63.85s4.04,5.88,6.05,5.6,22.79,6.54,24.03,15.53c0,0,4.27,11.78-4.21,14.28,0,0-3.17.82-3.38,2.36,0,0-.42,3.09-3.8.71,0,0-1.22-1.53-5.07-1.19-3.84.34-9.67-.37-13.68-4.54,0,0-5.58-3.58-8.23-14.57,0,0-.51-7.12,6.26-10.14,0,0,2.09-1.23,2.35-2.41,0,0,.27-1.62-1.09-4.71,0,0-.54-1.5.77-.92Z"/>
    <path class="cls-8" d="M335.26,64.33s3.97,5.76,5.94,5.49c1.97-.27,22.35,6.46,23.59,15.25,0,0,4.22,11.53-4.08,13.95,0,0-3.1.79-3.3,2.3,0,0-.4,3.02-3.72.69,0,0-1.2-1.5-4.97-1.18-3.76.32-9.47-.39-13.42-4.48,0,0-5.48-3.52-8.11-14.27,0,0-.53-6.96,6.1-9.89,0,0,2.04-1.2,2.29-2.35,0,0,.26-1.58-1.08-4.61,0,0-.53-1.47.75-.9Z"/>
    <path class="cls-8" d="M365.28,91.84s-3.28-11.09-20.57-18.16c0,0-7.06-3.94-7.3-5.8"/>
    <path class="cls-11" d="M343.75,99.36s-8.75-2.76-7.94-21.8c0,0,1.56-5.32.4-9.52"/>
    <path class="cls-11" d="M339.71,98.21s-5.32-4.75-5.92-6.18-2.35-7.05-2.35-7.05c0,0-.13-3.33-.55-3.87s1.97-7.3,1.97-7.3"/>
    <path class="cls-11" d="M350.59,100.11s-9.55-6.71-9.05-12.1c.51-5.39,0-6.07,0-6.07,0,0-3.83-7.1-3.3-7.74s1.66-1.54,3.22.91,4.57,4.9,4.57,4.9c0,0,8.75,6.52,9.67,8.16s5.62,5.96,4.1,9.96"/>
    <path class="cls-22" d="M347.25,87.12s8.01,9.51,8.83,11.1-3.01,3.63-5.27.35c-2.27-3.28-3.56-11.45-3.56-11.45Z"/>
    <path class="cls-8" d="M341.2,69.82l4.65,3.08s10.12,3.95,12.29,6.49c0,0,6.1,4.18,6.29,6.56"/>
    <path class="cls-27" d="M339.3,70.56c.9,1.3,2.45,1.95,3.78,2.72,1.43.68,2.74,1.52,4.16,2.24,4.11,2.52,8.04,5.18,11.7,8.29,3.71,3.03,7.27,7.57,6.03,12.69,0,0-.04.18-.04.18l-.18.1-4.24,2.43c-1.31.37-2.72.94-3.47,2.15,0,0,.02-.12.02-.12-.03.3-.06.6-.19.9-.21.68-1.03.84-1.59.52-.26-.12-.5-.27-.72-.45.45.24,1.05.48,1.52.31.49-.21.44-.85.42-1.32.65-1.5,2.04-2.62,3.64-2.91,0,0-.14.06-.14.06l4.24-2.43-.23.28c.35-1.36.22-2.97-.23-4.38-.9-2.98-3.17-5.25-5.5-7.24-3.57-3.05-7.55-5.73-11.53-8.18-2.13-1.06-4.18-2.36-5.97-3.97-.58-.54-1.22-1.11-1.49-1.87h0Z"/>
    <path class="cls-27" d="M337.27,71.49c-.18,5.79-.35,11.63.18,17.4.88,3.1,3.02,6.47,5.47,8.87.76.91,1.67,1.69,2.58,2.49-1.06-.57-2.1-1.22-3.05-1.99-2.72-2.48-4.71-5.76-5.75-9.3-.31-5.8-1-11.79.57-17.47h0Z"/>
    <path class="cls-27" d="M352.77,100.96c-1.68-.21-3.44-.36-5.11-.1-.83.17-1.75.24-2.66.14-2.66-.33-4.99-1.84-7.22-3.16-1.48-1-3.17-1.82-4.28-3.27-2.78-2.92-5.16-8.12-6.07-12.58-.36-2.47.46-4.98,2.1-6.81.79-.95,1.88-1.56,2.97-2.05,1.09-.44,2.17-.92,2.63-2.07-.27,1.2-1.44,1.94-2.44,2.47-.99.55-1.83,1.33-2.61,2.15-1.49,1.64-2.24,4.02-1.92,6.18.97,4.57,3.05,9.13,6.15,12.58,1.14,1.1,2.52,1.92,3.85,2.77,2.18,1.29,4.37,2.73,6.9,3.06,2.54-.02,5.22-.15,7.69.7h0Z"/>
    <path class="cls-27" d="M339.84,97.63c-2.69-1.72-5.6-4.02-6.46-7.23-.4-1.66-1.47-3.02-1.42-4.8.22-1.42-.31-3.17-.57-4.63-.13-1.24.02-2.42.34-3.61.43-1.13,1.09-2.16,1.91-2.99-.57,1-.97,2.08-1.18,3.2-.33.99-.43,2.36-.34,3.26.28,1.64.84,3.27.56,4.96-.05.2.06.63.17.98.75,1.71,1.21,4.09,2.16,5.51,1.47,1.9,3.24,3.51,4.82,5.36h0Z"/>
    <path class="cls-27" d="M359.29,98.32c-.19-4.3-2.88-8.1-6.27-10.58-1.14-.88-2.31-1.73-3.49-2.59,5.4,1.85,11.05,6.93,9.77,13.17h0Z"/>
    <path class="cls-27" d="M339.6,76.85c-.42-.63-1.4-2.85.02-2.8,2.92,2.04,2.83,2.85-.34.66.16.08.25.1.34-.02-.11.7.03,1.43-.01,2.16h0Z"/>
    <path class="cls-27" d="M341.73,86.6c-.05,5.5,6.39,10.51,9.99,14.16-.64-.4-1.24-.85-1.87-1.27-3.65-2.82-9.15-7.79-8.12-12.89h0Z"/>
    <path class="cls-41" d="M340.15,68.02l.83.51c.67,0,1.5.39,2.27.36,1.57.1,3.03-.01,4.59.05,2.26.12,4.41,1.04,6.59,1.72,2.99.91,5,3.48,7.19,5.53.75.77,2.04,2.03,2.83,2.74,1.39,1.6,2.34,3.51,3.04,5.49.5,1.02.7,2.25.68,3.37,0,1.51-.08,3-.23,4.5-.05-1.5-.05-3-.2-4.47-.3-3.08-2.01-5.91-3.95-8.26-.79-.64-2.12-1.94-2.86-2.67-2.16-1.96-3.99-4.42-6.83-5.37-1.37-.54-2.79-.96-4.22-1.5-2.05-.76-4.49-.42-6.67-.81-.79-.05-1.5-.45-2.3-.59,0,0-.76-.6-.77-.61h0Z"/>
    <path class="cls-14" d="M341.19,67.29s2.75.44,4.01.65,4.84-.68,6.22-.21,6.49.76,7.32,1.48,6.96,4.41,7.41,5.2,2.74,4.17,2.72,5.63c-.02,1.47,2.07,4.96.93,7.2"/>
  </g>
  <g>
    <path class="cls-21" d="M358.17,163.93s1.47-5.38-1.45-8.49c0,0-2.67-3.24-7.61-.13,0,0-4.64,2.45.09,10.38,0,0-7.92-1.59-7.96,5.58-.04,7.16,7.45,10.78,9.97,8.75s3.57-3.3,4.35-6.45c0,0,3,7.52,8.97,2.98,5.97-4.54,3.08-10.18,3.08-10.18,0,0-3.69-4.58-9.45-2.45Z"/>
    <path class="cls-10" d="M355.59,166.59s5.21-4.85-.97-9.21c-.08-.06-.16-.11-.24-.17,0,0-9.87-1.06-3.09,9.84,0,0-6.75-.91-6.93,2.59s.23,8.16,7.54,7.28c0,0,2.4.07,3.1-6.51,0,0,1.93,4.46,3.19,4.78s3.87,1.89,6.61-2.99-3.24-9.41-9.2-5.61Z"/>
    <path class="cls-6" d="M358.17,163.93s1.47-5.38-1.45-8.49c0,0-2.67-3.24-7.61-.13,0,0-4.64,2.45.09,10.38,0,0-7.92-1.59-7.96,5.58-.04,7.16,7.45,10.78,9.97,8.75s3.57-3.3,4.35-6.45c0,0,3,7.52,8.97,2.98,5.97-4.54,3.08-10.18,3.08-10.18,0,0-3.69-4.58-9.45-2.45Z"/>
    <path class="cls-4" d="M355.5,166.39s5.21-4.85-.97-9.21c-.08-.06-.16-.11-.24-.17,0,0-9.87-1.06-3.09,9.84,0,0-6.75-.91-6.93,2.59s.23,8.16,7.54,7.28c0,0,2.4.07,3.1-6.51,0,0,1.93,4.46,3.19,4.78s3.87,1.89,6.61-2.99c2.74-4.88-3.24-9.41-9.2-5.61Z"/>
  </g>
  <path class="cls-30" d="M111.96,196.58c-17.37.01-47.87-.6-64.99-.03-.25-.13-.64.59-.87,1.24-.71,2.13-.94,4.42-1.13,6.68-.76,12.27.72,24.66,3.14,36.7,9.7,48.94,41.16,92.58,90.37,107,26.49,8.19,54.92,8.26,82.23,4.69,6.27-.57,14.34-2.06,20.61-2.97,4.16-.82,9.45-1.88,13.61-2.71,4.19-1.09,11.57-2.69,15.68-3.98,2.18-.68,6.67-1.96,8.86-2.63,7.05-2.32,14.72-5.23,21.58-8.18,49.04-21.72,78.12-58.34,84.82-111.97.84-6.13,1.35-12.29,1.99-18.46l.32.35-29.95.03,29.94-.67h.35s-.03.35-.03.35c-.53,6.16-.94,12.35-1.68,18.52-5.61,53.97-35.54,92.32-84.71,114.23,0,0-8.63,3.6-8.63,3.6-4.16,1.67-8.95,3.27-13.18,4.76-2.25.65-6.7,2.04-8.94,2.69-4.11,1.35-11.6,2.95-15.82,4.07-4.19.85-9.52,1.94-13.72,2.78-6.33.93-14.43,2.46-20.75,3.07-39.79,5.59-83.17,2.17-117.2-20.99-36.8-24.65-56.38-68.55-60.13-111.69-.49-6.2-.71-12.45-.15-18.69.25-2.36.51-4.74,1.32-7.01.28-.61.52-1.3,1.12-1.75.23-.18.58-.29.88-.28,3.14-.11,6.22-.06,9.33-.04,18.59.22,37.16.72,55.74,1.3h0Z"/>
</svg>